<?xml version="1.0" encoding="utf-8"?>
<!-- Generator: Adobe Illustrator 16.0.0, SVG Export Plug-In . SVG Version: 6.00 Build 0)  -->
<!DOCTYPE svg PUBLIC "-//W3C//DTD SVG 1.1//EN" "http://www.w3.org/Graphics/SVG/1.1/DTD/svg11.dtd">
<svg version="1.1" id="Layer_1" xmlns="http://www.w3.org/2000/svg" xmlns:xlink="http://www.w3.org/1999/xlink" x="0px" y="0px"
	 width="500px" height="500px" viewBox="0 0 500 500" enable-background="new 0 0 500 500" xml:space="preserve">
<path fill="#324B5B" d="M499.5,124.875v93.656c-156.094,83.26-343.406,83.26-499.5,0v-93.656H499.5z M296.578,309.932v33.475
	c0,17.256-13.963,31.219-31.219,31.219h-31.219c-17.24,0-31.219-13.963-31.219-31.219v-33.475
	c-58.535-4.971-116.476-18.872-171.703-42.257v200.606c0,17.256,13.979,31.219,31.219,31.219h374.625
	c17.256,0,31.219-13.963,31.219-31.219V267.676C413.039,291.06,355.113,304.962,296.578,309.932z M187.312,93.656V62.438
	c0-17.195,14.008-31.219,31.219-31.219h62.438c17.194,0,31.219,14.024,31.219,31.219v31.219h31.219V62.438
	C343.406,27.957,315.449,0,280.969,0h-62.438c-34.481,0-62.438,27.957-62.438,62.438v31.219H187.312z"/>
</svg>
