<?xml version="1.0" encoding="utf-8"?>
<!-- Generator: Adobe Illustrator 16.0.0, SVG Export Plug-In . SVG Version: 6.00 Build 0)  -->
<!DOCTYPE svg PUBLIC "-//W3C//DTD SVG 1.1//EN" "http://www.w3.org/Graphics/SVG/1.1/DTD/svg11.dtd">
<svg version="1.1" id="Layer_1" xmlns="http://www.w3.org/2000/svg" xmlns:xlink="http://www.w3.org/1999/xlink" x="0px" y="0px"
	 width="500px" height="500px" viewBox="0 0 500 500" enable-background="new 0 0 500 500" xml:space="preserve">
<g>
	<polygon fill="#324B5B" points="212.689,2.102 55.564,159.231 119.654,225.393 279.882,66.198 	"/>
	<polygon fill="#324B5B" points="151.701,225.393 279.882,92.038 402.891,217.123 277.288,350.473 	"/>
	<polygon fill="#324B5B" points="277.288,380.449 434.941,221.252 498,283.279 340.87,443.511 	"/>
	<path fill="#324B5B" d="M48.652,493.95c-11.789,0-23.592-4.499-32.584-13.502c-18.004-17.989-18.004-47.168,0-65.163
		L191.972,239.38c17.983-17.994,47.184-17.994,65.167,0c18.004,18,18.004,47.178,0,65.173L81.235,480.443
		C72.244,489.451,60.44,493.95,48.652,493.95z"/>
</g>
</svg>
