<?xml version="1.0" encoding="utf-8"?>
<!-- Generator: Adobe Illustrator 16.0.0, SVG Export Plug-In . SVG Version: 6.00 Build 0)  -->
<!DOCTYPE svg PUBLIC "-//W3C//DTD SVG 1.1//EN" "http://www.w3.org/Graphics/SVG/1.1/DTD/svg11.dtd">
<svg version="1.1" id="Layer_1" xmlns="http://www.w3.org/2000/svg" xmlns:xlink="http://www.w3.org/1999/xlink" x="0px" y="0px"
	 width="500px" height="500px" viewBox="0 0 500 500" enable-background="new 0 0 500 500" xml:space="preserve">
<text transform="matrix(1 0 0 1 -4 848.0664)" font-family="'HelveticaNeue-Bold'" font-size="22.2222">Created by Piger</text>
<text transform="matrix(1 0 0 1 -4 870.2891)" font-family="'HelveticaNeue-Bold'" font-size="22.2222">from the Noun Project</text>
<path fill="none" d="M26.25,157c0,10.35-8.646,18.724-19.33,18.724"/>
<path fill="#324B5B" d="M360.071,46.281c-43.926,0-82.97,19.522-108.767,50.897c-25.797-31.375-64.843-50.897-108.768-50.897
	C64.447,46.281,1,109.729,1,187.817c0,41.137,17.431,78.09,45.319,103.888L238.057,484.14c3.486,3.485,8.366,5.578,12.55,5.578
	c4.88,0,9.063-1.396,12.55-5.578l191.736-192.435c27.89-25.798,45.321-62.751,45.321-103.888
	C501.608,109.729,438.161,46.281,360.071,46.281z M136.352,67.758c-0.001,0-0.002,0.001-0.003,0.001
	c-54.453,7.378-100.146,49.986-108.931,96.915c-0.002,0.004-0.005,0.006-0.007,0.01c-4.24,6.824-5.932,0.054-5.945,0.002
	c6.472-50.397,56.193-97.159,114.886-102.65C136.352,62.037,143.205,64.514,136.352,67.758z"/>
</svg>
