<?xml version="1.0" encoding="UTF-8" standalone="no"?>
<svg width="468px" height="468px" viewBox="0 0 468 468" version="1.1" xmlns="http://www.w3.org/2000/svg" xmlns:xlink="http://www.w3.org/1999/xlink" xmlns:sketch="http://www.bohemiancoding.com/sketch/ns">
    <!-- Generator: Sketch 3.4.4 (17249) - http://www.bohemiancoding.com/sketch -->
    <title>Artboard 1</title>
    <desc>Created with Sketch.</desc>
    <defs></defs>
    <g id="Page-1" stroke="none" stroke-width="1" fill="none" fill-rule="evenodd" sketch:type="MSPage">
        <g id="Artboard-1" sketch:type="MSArtboardGroup" fill="#314A6F">
            <g id="paper-+-Path-1" sketch:type="MSLayerGroup" transform="translate(54.000000, 2.000000)">
                <g id="paper" sketch:type="MSShapeGroup">
                    <path d="M0,42.0073066 C0,18.8073118 18.8010817,0 42.0011348,0 L317.998865,0 C341.195451,0 360,18.8064538 360,42.0006288 L360,337.093531 L360,420.991545 C360,444.192174 341.196598,463 318.007389,463 L220.203924,463 L41.9937977,463 C18.8012636,463 0,444.204161 0,420.992693 L0,42.0073066 Z M49.0191215,74.2873134 L301.738254,74.2873134 L301.738254,110 L49.0191215,110 L49.0191215,74.2873134 Z M49,134 L301.719132,134 L301.719132,169.712687 L49,169.712687 L49,134 Z M49,193.789993 L301.719132,193.789993 L301.719132,229.50268 L49,229.50268 L49,193.789993 Z M49,253.50268 L231,253.50268 L231,289.215366 L49,289.215366 L49,253.50268 Z M49,371 L231,371 L231,406.712687 L49,406.712687 L49,371 Z" id="Rectangle-8"></path>
                </g>
            </g>
        </g>
    </g>
</svg>