<?xml version="1.0" encoding="utf-8"?>
<!-- Generator: Adobe Illustrator 16.0.0, SVG Export Plug-In . SVG Version: 6.00 Build 0)  -->
<!DOCTYPE svg PUBLIC "-//W3C//DTD SVG 1.1//EN" "http://www.w3.org/Graphics/SVG/1.1/DTD/svg11.dtd">
<svg version="1.1" id="Layer_1" xmlns="http://www.w3.org/2000/svg" xmlns:xlink="http://www.w3.org/1999/xlink" x="0px" y="0px"
	 width="500px" height="500px" viewBox="0 0 500 500" enable-background="new 0 0 500 500" xml:space="preserve">
<path fill="#324B5B" d="M406.122,7.376H117.203c-17.853,0-32.326,14.473-32.326,32.326v422.873
	c0,17.853,14.473,32.325,32.326,32.325h288.919c17.853,0,32.326-14.473,32.326-32.325V39.703
	C438.448,21.85,423.975,7.376,406.122,7.376z M382.242,438.758l-244.196,0.504L136.459,74.5l247.375-0.667L382.242,438.758z"/>
<rect x="157.637" y="112.5" fill="#324B5B" width="205.51" height="16.892"/>
<rect x="157.637" y="158.769" fill="#324B5B" width="205.51" height="16.891"/>
<rect x="157.637" y="198.251" fill="#324B5B" width="205.51" height="16.893"/>
<rect x="157.637" y="247.275" fill="#324B5B" width="205.51" height="16.892"/>
<rect x="157.637" y="288.4" fill="#324B5B" width="105.69" height="16.891"/>
<rect x="162.057" y="369.813" fill="#324B5B" width="71.743" height="15.026"/>
<rect x="296.799" y="369.813" fill="#324B5B" width="71.743" height="15.026"/>
</svg>
