<?xml version="1.0" encoding="utf-8"?>
<!-- Generator: Adobe Illustrator 16.0.0, SVG Export Plug-In . SVG Version: 6.00 Build 0)  -->
<!DOCTYPE svg PUBLIC "-//W3C//DTD SVG 1.1//EN" "http://www.w3.org/Graphics/SVG/1.1/DTD/svg11.dtd">
<svg version="1.1" id="Layer_1" xmlns="http://www.w3.org/2000/svg" xmlns:xlink="http://www.w3.org/1999/xlink" x="0px" y="0px"
	 width="500px" height="500px" viewBox="0 0 500 500" enable-background="new 0 0 500 500" xml:space="preserve">
<path fill="#324B5B" d="M463.598,36.459C439.313,12.175,407.479,0,375.644,0s-63.64,12.175-87.89,36.459L162.076,162.108l0,0
	L36.427,287.757c-48.57,48.5-48.57,127.274,0.03,175.844c48.5,48.534,127.279,48.534,175.813,0l98.889-98.859l152.438-152.443
	C512.133,163.733,512.133,84.959,463.598,36.459z M436.838,185.543L311.154,311.191L188.831,188.863L314.544,63.214
	c16.311-16.34,38.021-25.355,61.1-25.355c23.11,0,44.859,9.015,61.194,25.355C470.527,96.904,470.527,151.818,436.838,185.543z"/>
</svg>
