<?xml version="1.0" encoding="utf-8"?>
<!-- Generator: Adobe Illustrator 16.0.0, SVG Export Plug-In . SVG Version: 6.00 Build 0)  -->
<!DOCTYPE svg PUBLIC "-//W3C//DTD SVG 1.1//EN" "http://www.w3.org/Graphics/SVG/1.1/DTD/svg11.dtd">
<svg version="1.1" id="Layer_1" xmlns="http://www.w3.org/2000/svg" xmlns:xlink="http://www.w3.org/1999/xlink" x="0px" y="0px"
	 width="500px" height="500px" viewBox="0 0 500 500" enable-background="new 0 0 500 500" xml:space="preserve">
<path fill="#E7E8E9" d="M488.331,449.074L358.846,318.893c3.65-4.959,6.208-8.442,7.99-10.891l0.219-0.297
	c1.456-1.917,2.863-3.846,4.231-5.812l0.123-0.168h-0.005c50.725-72.904,39.494-176.014-27.596-243.097
	C306.322,21.135,256.479,0.492,203.47,0.492S100.629,21.136,63.136,58.623C25.648,96.11,5,145.954,5,198.973
	c0,53.013,20.644,102.861,58.136,140.345c37.384,37.388,87.103,57.978,139.992,57.978l0,0c31.707,0,63.299-7.675,91.562-22.289
	c3.177-1.788,12.594-7.258,20.153-13.371l131.506,128.49c0.788,0.787,5.034,4.726,11.206,4.726c2.705,0,6.747-0.798,10.656-4.598
	l6.569-6.34c5.018-4.831,10.295-9.913,14.073-13.689C496.202,462.872,492.641,453.627,488.331,449.074z M202.554,53.902
	c79.9,0,144.897,65.002,144.897,144.901c0,79.89-64.997,144.897-144.897,144.897c-79.9,0-144.902-65.007-144.902-144.896
	C57.652,118.905,122.655,53.902,202.554,53.902z"/>
</svg>
