<?xml version="1.0" encoding="utf-8"?>
<!-- Generator: Adobe Illustrator 16.0.0, SVG Export Plug-In . SVG Version: 6.00 Build 0)  -->
<!DOCTYPE svg PUBLIC "-//W3C//DTD SVG 1.1//EN" "http://www.w3.org/Graphics/SVG/1.1/DTD/svg11.dtd">
<svg version="1.1"
	 id="Layer_1" xmlns:sodipodi="http://sodipodi.sourceforge.net/DTD/sodipodi-0.dtd" xmlns:rdf="http://www.w3.org/1999/02/22-rdf-syntax-ns#" xmlns:cc="http://creativecommons.org/ns#" xmlns:inkscape="http://www.inkscape.org/namespaces/inkscape" xmlns:dc="http://purl.org/dc/elements/1.1/" xmlns:svg="http://www.w3.org/2000/svg"
	 xmlns="http://www.w3.org/2000/svg" xmlns:xlink="http://www.w3.org/1999/xlink" x="0px" y="0px" width="500px" height="500px"
	 viewBox="0 0 500 500" enable-background="new 0 0 500 500" xml:space="preserve">
<path fill="#324B5B" d="M247.854,0.002c-47.026,0.208-94.478,13.742-136.573,41.716C-3.359,117.903-34.489,272.578,41.697,387.218
	s230.858,145.77,345.499,69.585l2.077-1.385c113.019-76.801,143.137-230.311,67.508-344.115
	C408.569,38.758,328.898-0.354,247.854,0.002z M249.239,75.992c25.91-0.014,52.244,5.703,77.027,18.002
	c85.738,42.548,120.789,146.558,78.239,232.294C362.268,411.4,259.313,446.578,173.77,405.22l-1.558-0.692
	C86.473,361.979,51.423,257.97,93.972,172.233C124.222,111.279,185.515,76.027,249.239,75.992z M245.777,103.514
	c-11.355,0.041-22.497,2.253-34.273,6.578c-1.746,0.642-3.175,2.059-3.808,3.808s-0.412,3.928,0.519,5.539l33.754,58.16
	c1.103,1.909,3.161,3.257,5.366,3.289c2.135,0.032,4.185-1.164,5.366-2.942l37.389-56.083c1.045-1.576,1.252-3.56,0.692-5.366
	s-1.883-3.271-3.635-3.981C271.927,106.355,258.646,103.469,245.777,103.514z M343.923,146.096c-0.473,0-0.924,0.068-1.385,0.173
	c-1.845,0.42-3.485,1.768-4.328,3.462l-29.945,60.237c-0.949,1.912-0.922,4.398,0.173,6.231c1.131,1.894,3.334,3.116,5.539,3.116
	h67.335c1.86,0,3.648-0.828,4.847-2.25s1.701-3.533,1.385-5.366c-4.571-26.369-15.445-45.205-39.812-64.218
	C346.612,146.608,345.34,146.096,343.923,146.096z M153.69,146.788c-1.417,0-2.863,0.339-3.981,1.211
	c-24.367,19.014-35.241,38.022-39.812,64.392c-0.316,1.833,0.186,3.771,1.385,5.193c1.199,1.423,3.159,2.25,5.02,2.25h67.161
	c2.206,0,4.409-1.222,5.539-3.116c1.096-1.833,1.296-4.146,0.346-6.059l-29.946-60.41c-0.842-1.693-2.483-2.869-4.327-3.289
	C154.614,146.856,154.163,146.788,153.69,146.788z M249.412,212.045c-7.16-0.055-14.359,1.97-20.771,6.231
	c-17.101,11.365-21.75,34.481-10.386,51.583c11.365,17.101,34.481,21.75,51.583,10.386l0.346-0.174
	c16.859-11.456,21.32-34.433,10.04-51.409C273.121,217.974,261.348,212.136,249.412,212.045z M116.821,277.129
	c-1.65,0.088-3.203,0.689-4.327,1.904c-1.286,1.388-1.993,3.493-1.731,5.366c4.283,30.609,15.28,49.325,35.831,66.469
	c1.43,1.189,3.362,1.712,5.193,1.385s3.571-1.504,4.5-3.116l33.581-58.333c1.103-1.909,1.248-4.306,0.173-6.231
	c-1.04-1.865-3.062-3.155-5.193-3.289l-67.334-4.154C117.277,277.115,117.057,277.115,116.821,277.129z M379.927,277.648
	l-67.161,4.154c-2.132,0.133-4.154,1.424-5.193,3.289c-1.075,1.926-1.104,4.495,0,6.404l33.581,58.16
	c0.929,1.612,2.669,2.788,4.5,3.115c1.831,0.328,3.764-0.194,5.193-1.385c20.551-17.143,31.548-35.858,35.83-66.469
	c0.263-1.873-0.446-3.805-1.73-5.192c-1.125-1.214-2.678-1.991-4.327-2.077C380.384,277.635,380.163,277.635,379.927,277.648z
	 M247.335,317.634c-2.205,0.031-4.263,1.378-5.366,3.288l-33.754,58.334c-0.931,1.61-1.152,3.616-0.519,5.365
	c0.633,1.75,2.062,3.165,3.808,3.809c25.122,9.226,46.993,9.171,75.643-2.424c1.752-0.71,3.075-2.174,3.635-3.98
	s0.353-3.789-0.692-5.366l-37.389-56.083C251.52,318.798,249.47,317.603,247.335,317.634z"/>
</svg>
